<?xml version="1.0" encoding="UTF-8" standalone="no"?>
<!-- Created with Inkscape (http://www.inkscape.org/) -->

<svg
   width="512"
   height="512"
   viewBox="0 0 512 512"
   version="1.1"
   id="svg5"
   inkscape:version="1.2 (1:1.2.1+202207142221+cd75a1ee6d)"
   sodipodi:docname="OMNT_logo_001.svg"
   inkscape:export-filename="OMNT_logo_001.png"
   inkscape:export-xdpi="96"
   inkscape:export-ydpi="96"
   xmlns:inkscape="http://www.inkscape.org/namespaces/inkscape"
   xmlns:sodipodi="http://sodipodi.sourceforge.net/DTD/sodipodi-0.dtd"
   xmlns="http://www.w3.org/2000/svg"
   xmlns:svg="http://www.w3.org/2000/svg">
  <sodipodi:namedview
     id="namedview7"
     pagecolor="#ffffff"
     bordercolor="#000000"
     borderopacity="0.25"
     inkscape:showpageshadow="2"
     inkscape:pageopacity="0.0"
     inkscape:pagecheckerboard="0"
     inkscape:deskcolor="#d1d1d1"
     inkscape:document-units="px"
     showgrid="true"
     inkscape:zoom="1.3037281"
     inkscape:cx="90.126153"
     inkscape:cy="243.53237"
     inkscape:window-width="1856"
     inkscape:window-height="1136"
     inkscape:window-x="0"
     inkscape:window-y="27"
     inkscape:window-maximized="1"
     inkscape:current-layer="layer1" />
  <defs
     id="defs2" />
  <g
     inkscape:label="Layer 1"
     inkscape:groupmode="layer"
     id="layer1">
    <g
       id="g5570"
       transform="matrix(1.2334173,0,0,1.2334173,-79.754833,-82.615776)">
      <text
         xml:space="preserve"
         style="font-size:109.111px;fill:#000000;stroke-width:0.568067;stroke-dasharray:none"
         x="88.63076"
         y="300.64938"
         id="text113"><tspan
           id="tspan111"
           x="88.63076"
           y="300.64938"
           sodipodi:role="line"
           style="font-size:109.111px;fill:#2866bf;fill-opacity:1;stroke-width:0.568067;stroke-dasharray:none">OMNT</tspan></text>
      <text
         xml:space="preserve"
         style="font-size:19.5717px;fill:#2866bf;fill-opacity:1;stroke-width:0.568067;stroke-dasharray:none"
         x="125.35795"
         y="325.32965"
         id="text1934"><tspan
           sodipodi:role="line"
           id="tspan1932"
           x="125.35795"
           y="325.32965"
           style="font-size:19.5717px;stroke-width:0.568067">OpenMobileNetworkToolkit</tspan></text>
    </g>
    <g
       id="g25781"
       transform="rotate(-12.4,731.16681,837.74367)">
      <path
         id="path25028"
         style="fill:#2866bf;fill-opacity:1;stroke-width:13.348;stroke-dasharray:none;paint-order:markers stroke fill"
         d="m 240.97656,56.402344 v 5.560547 a 38.814667,38.814667 0 0 1 0.94727,0.183593 38.814667,38.814667 0 0 1 1.32031,0.304688 38.814667,38.814667 0 0 1 1.30859,0.351562 38.814667,38.814667 0 0 1 1.29493,0.394532 38.814667,38.814667 0 0 1 1.28125,0.441406 38.814667,38.814667 0 0 1 1.26562,0.486328 38.814667,38.814667 0 0 1 1.24609,0.529297 38.814667,38.814667 0 0 1 1.22852,0.572265 38.814667,38.814667 0 0 1 1.20703,0.615235 38.814667,38.814667 0 0 1 1.18555,0.65625 38.814667,38.814667 0 0 1 1.16016,0.697265 38.814667,38.814667 0 0 1 1.13671,0.738282 38.814667,38.814667 0 0 1 1.10938,0.777344 38.814667,38.814667 0 0 1 1.08203,0.816406 38.814667,38.814667 0 0 1 1.05273,0.851562 38.814667,38.814667 0 0 1 1.02344,0.888672 38.814667,38.814667 0 0 1 0.99024,0.923828 38.814667,38.814667 0 0 1 0.95898,0.958985 38.814667,38.814667 0 0 1 0.92383,0.990234 38.814667,38.814667 0 0 1 0.88867,1.023437 38.814667,38.814667 0 0 1 0.85156,1.052735 38.814667,38.814667 0 0 1 0.81641,1.082031 38.814667,38.814667 0 0 1 0.77734,1.109375 38.814667,38.814667 0 0 1 0.73828,1.136719 38.814667,38.814667 0 0 1 0.69727,1.160156 38.814667,38.814667 0 0 1 0.65625,1.185547 38.814667,38.814667 0 0 1 0.61523,1.207031 38.814667,38.814667 0 0 1 0.57227,1.228516 38.814667,38.814667 0 0 1 0.5293,1.246094 38.814667,38.814667 0 0 1 0.48632,1.265625 38.814667,38.814667 0 0 1 0.44141,1.28125 38.814667,38.814667 0 0 1 0.39453,1.294921 38.814667,38.814667 0 0 1 0.35156,1.308594 38.814667,38.814667 0 0 1 0.30469,1.320313 38.814667,38.814667 0 0 1 0.25781,1.330078 38.814667,38.814667 0 0 1 0.2129,1.337891 38.814667,38.814667 0 0 1 0.0625,0.505859 h 7.4375 A 38.814667,38.814667 0 0 0 240.97656,56.402344 Z" />
      <path
         id="path25028-9-6"
         style="fill:#2866bf;fill-opacity:1;stroke-width:13.348;stroke-dasharray:none;paint-order:markers stroke fill"
         d="m 250.91707,48.398784 v 5.560547 a 38.814667,38.814667 0 0 1 0.94727,0.183593 38.814667,38.814667 0 0 1 1.32031,0.304688 38.814667,38.814667 0 0 1 1.30859,0.351562 38.814667,38.814667 0 0 1 1.29493,0.394532 38.814667,38.814667 0 0 1 1.28125,0.441406 38.814667,38.814667 0 0 1 1.26562,0.486328 38.814667,38.814667 0 0 1 1.24609,0.529297 38.814667,38.814667 0 0 1 1.22852,0.572265 38.814667,38.814667 0 0 1 1.20703,0.615235 38.814667,38.814667 0 0 1 1.18555,0.65625 38.814667,38.814667 0 0 1 1.16016,0.697265 38.814667,38.814667 0 0 1 1.13671,0.738282 38.814667,38.814667 0 0 1 1.10938,0.777344 38.814667,38.814667 0 0 1 1.08203,0.816406 38.814667,38.814667 0 0 1 1.05273,0.851562 38.814667,38.814667 0 0 1 1.02344,0.888672 38.814667,38.814667 0 0 1 0.99024,0.923828 38.814667,38.814667 0 0 1 0.95898,0.958985 38.814667,38.814667 0 0 1 0.92383,0.990234 38.814667,38.814667 0 0 1 0.88867,1.023437 38.814667,38.814667 0 0 1 0.85156,1.052735 38.814667,38.814667 0 0 1 0.81641,1.082031 38.814667,38.814667 0 0 1 0.77734,1.109372 38.814667,38.814667 0 0 1 0.73828,1.13672 38.814667,38.814667 0 0 1 0.69727,1.16016 38.814667,38.814667 0 0 1 0.65625,1.18555 38.814667,38.814667 0 0 1 0.61523,1.20703 38.814667,38.814667 0 0 1 0.57227,1.22851 38.814667,38.814667 0 0 1 0.5293,1.2461 38.814667,38.814667 0 0 1 0.48632,1.26562 38.814667,38.814667 0 0 1 0.44141,1.28125 38.814667,38.814667 0 0 1 0.39453,1.29492 38.814667,38.814667 0 0 1 0.35156,1.3086 38.814667,38.814667 0 0 1 0.30469,1.32031 38.814667,38.814667 0 0 1 0.25781,1.33008 38.814667,38.814667 0 0 1 0.2129,1.33789 38.814667,38.814667 0 0 1 0.0625,0.50586 h 7.4375 A 38.814667,38.814667 0 0 0 250.91707,48.398784 Z" />
      <path
         id="path25028-9-66"
         style="fill:#2866bf;fill-opacity:1;stroke-width:13.348;stroke-dasharray:none;paint-order:markers stroke fill"
         d="m 260.48823,41.508374 v 5.560547 c 0.31651,0.05727 0.63229,0.118473 0.94727,0.183593 0.44184,0.09387 0.88201,0.195451 1.32031,0.304688 0.43821,0.109564 0.87447,0.226769 1.30859,0.351562 0.4339,0.123973 0.86561,0.255504 1.29493,0.394532 0.42962,0.139668 0.85677,0.286826 1.28125,0.441406 0.42467,0.154728 0.84661,0.316862 1.26562,0.486328 0.41841,0.169174 0.83384,0.345634 1.24609,0.529297 0.41281,0.183591 0.82238,0.374375 1.22852,0.572265 0.40589,0.198041 0.8083,0.40315 1.20703,0.615235 0.39897,0.211835 0.79422,0.430618 1.18555,0.65625 0.39074,0.225661 0.77752,0.458118 1.16016,0.697265 0.38317,0.239459 0.76213,0.485591 1.13671,0.738282 0.37429,0.252642 0.74414,0.511796 1.10938,0.777344 0.3654,0.265816 0.72613,0.537993 1.08203,0.816406 0.35583,0.277711 0.7068,0.561608 1.05273,0.851562 0.34629,0.290244 0.68749,0.586514 1.02344,0.888672 0.33543,0.30216 0.66556,0.61015 0.99024,0.923828 0.32522,0.314052 0.64493,0.633763 0.95898,0.958985 0.31368,0.32468 0.62167,0.654809 0.92383,0.990234 0.30216,0.335947 0.59843,0.677145 0.88867,1.023437 0.28995,0.345934 0.57385,0.696899 0.85156,1.052735 0.27841,0.355897 0.55059,0.716629 0.81641,1.082031 0.26555,0.36524 0.5247,0.735087 0.77734,1.109371 0.25269,0.374579 0.49882,0.753542 0.73828,1.136716 0.23915,0.382638 0.47161,0.769416 0.69727,1.16016 0.22563,0.391335 0.44442,0.786578 0.65625,1.18555 0.21208,0.398733 0.41719,0.801138 0.61523,1.20703 0.19789,0.406142 0.38868,0.815707 0.57227,1.22851 0.18366,0.412258 0.36012,0.827688 0.5293,1.2461 0.16946,0.41901 0.33159,0.840947 0.48632,1.26562 0.15458,0.424482 0.30174,0.85163 0.44141,1.28125 0.13903,0.429314 0.27056,0.861019 0.39453,1.29492 0.12479,0.434121 0.242,0.870388 0.35156,1.3086 0.10924,0.438297 0.21082,0.878467 0.30469,1.32031 0.0937,0.441826 0.17962,0.885254 0.25781,1.33008 0.0787,0.444691 0.14972,0.890722 0.2129,1.33789 0.0219,0.168481 0.0625,0.50586 0.0625,0.50586 h 7.4375 C 299.30257,58.886242 281.92481,41.508488 260.48823,41.508374 Z"
         sodipodi:nodetypes="cccccccsccccscccsccccscccsccccscccccccccc" />
    </g>
  </g>
</svg>
